<svg xmlns="http://www.w3.org/2000/svg" width="14" height="14.024"><path d="M232.371 191.8v5.962l-1.874-.347-.826-.991-3.48-3.869 2.955-2.1c1.48 1.954 1.527 1.477 1.527 1.477a1.028 1.028 0 0 1 1.669-.154Z" style="fill:#ccc" transform="translate(-220.007 -185.241)"/><path d="m48.345 223.1 6.144 7.908c-.036 0-.072.005-.108.005H44.336Z" style="fill:#518ef8" transform="translate(-43.134 -216.994)"/><path d="M9.585 64.193.447 71.884V61.753a1.116 1.116 0 0 1 1.116-1.116h6.664c-.286.492.775.808.775 1.418a5.3 5.3 0 0 0 .583 2.138" style="fill:#28b446" transform="translate(-.447 -58.976)"/><path d="M233.462 285.36v.385a1.116 1.116 0 0 1-1.008 1.111l-5.142-5.074 1.245-1.261 2.872 2.834.159.157Z" style="fill:#f2f2f2" transform="translate(-221.099 -272.837)"/><path d="m9.269 184.475-1.363 1.381-1.245 1.261-5.012 5.083h-.086a1.117 1.117 0 0 1-1.116-1.12l7.786-7.89c.146.25 1.149 0 1.352.2l.374.481c.184.194-.847.397-.69.604" style="fill:#ffd837" transform="translate(-.447 -178.172)"/><path d="M43.744 101.455A1.779 1.779 0 1 1 45 98.418l-.412.412a1.2 1.2 0 1 0 .314 1.137h-1.16v-.583h1.779v.292a1.78 1.78 0 0 1-1.777 1.779" style="fill:#fff" transform="translate(-40.828 -95.215)"/><path d="M268.515 1.661a3.335 3.335 0 1 1 5.237 4.039 8 8 0 0 0-.683.843 10.8 10.8 0 0 0-1.669 4.073 10.7 10.7 0 0 0-1.844-4.316 8 8 0 0 0-.509-.6 3.336 3.336 0 0 1-.533-4.037Z" style="fill:#f14336" transform="translate(-260.735)"/><path d="M326.787 56.947a1.775 1.775 0 1 1-1.775 1.775 1.775 1.775 0 0 1 1.775-1.775" style="fill:#7e2d25" transform="translate(-316.122 -55.387)"/></svg>