<svg xmlns="http://www.w3.org/2000/svg" width="15.848" height="15.848"><defs><style>.a{fill:#fff}</style></defs><path d="M11.127 0H4.721A4.726 4.726 0 0 0 0 4.721v6.405a4.726 4.726 0 0 0 4.721 4.721h6.405a4.726 4.726 0 0 0 4.721-4.721V4.721A4.726 4.726 0 0 0 11.127 0m3.127 11.127a3.127 3.127 0 0 1-3.127 3.127H4.721a3.127 3.127 0 0 1-3.127-3.127V4.721a3.127 3.127 0 0 1 3.127-3.127h6.405a3.127 3.127 0 0 1 3.127 3.127z" class="a"/><path d="M7.925 3.825a4.1 4.1 0 1 0 4.1 4.1 4.1 4.1 0 0 0-4.1-4.1m0 6.6a2.5 2.5 0 1 1 2.5-2.5 2.5 2.5 0 0 1-2.5 2.5" class="a"/><circle cx=".982" cy=".982" r=".982" class="a" transform="translate(11.048 2.874)"/></svg>