<svg xmlns="http://www.w3.org/2000/svg" viewBox="0 0 237.8 84.3"><path fill="none" stroke="#939598" stroke-linecap="round" stroke-linejoin="round" stroke-miterlimit="10" stroke-width="3" d="M97.8 78.7V30.4c0-9 7.2-16.1 16.1-16.1h14.3a16 16 0 0 1 16 16v10.3c0 9-7.2 16.1-16 16.1H108m40.2-42.5h6.2c3.7 0 6.6 3 6.6 6.7v36"/><path fill="#32bcad" d="m159.7 8.7-2.8-2.8c-.7-.7-.7-1.9 0-2.6l2.8-2.8c.7-.7 1.8-.7 2.5 0l2.8 2.8c.7.7.7 1.9 0 2.6l-2.8 2.8c-.7.7-1.8.7-2.5 0"/><path fill="none" stroke="#939598" stroke-linecap="round" stroke-linejoin="round" stroke-miterlimit="10" stroke-width="3" d="M172.9 14.2h6.1a12 12 0 0 1 8.4 3.5l14.4 14.5a4.8 4.8 0 0 0 6.7 0l14.3-14.3a12 12 0 0 1 8.6-3.7h5m-63.5 42.4h6.1a12 12 0 0 0 8.4-3.4l14.4-14.4a4.8 4.8 0 0 1 6.7 0l14.3 14.3a12 12 0 0 0 8.5 3.5h5"/><path fill="#32bcad" d="M61.2 65.8c-3 0-6-1.2-8.1-3.4L41.3 50.7c-.8-.9-2.3-.9-3.1 0L26.4 62.5c-2.2 2.2-5.1 3.4-8.2 3.4h-2.3l15 14.9a12 12 0 0 0 16.8 0l15-15zm-43-41.6c3.1 0 6 1.2 8.2 3.3l11.8 11.9c.9.8 2.2.8 3 0l11.9-11.8c2.1-2.2 5-3.4 8.1-3.4h1.4l-15-15a12 12 0 0 0-16.8 0l-14.9 15z"/><path fill="#32bcad" d="m75 36.6-9-9h-4.7c-2.2 0-4.3 1-5.8 2.4L43.7 41.8a5.6 5.6 0 0 1-8 0L23.9 30a8.1 8.1 0 0 0-5.7-2.4h-5l-.6-.1-9.1 9a12 12 0 0 0 0 17l9 9 .7-.1h5c2.1 0 4.2-.9 5.7-2.4l11.8-11.8a5.8 5.8 0 0 1 8 0L55.5 60a8.1 8.1 0 0 0 5.7 2.4H66l9-9a12 12 0 0 0 0-16.8"/><path fill="#939598" d="M110.1 74.6c-.7 0-1.5.1-2.2.3v3c.5.2 1.1.3 1.7.3 1.5 0 2.2-.5 2.2-1.8s-.6-1.8-1.7-1.8m-2.7 5.5v-5.9h.4v.3c.7-.2 1.7-.4 2.3-.4s1.1 0 1.5.4c.6.5.7 1.1.7 1.9 0 .7-.2 1.4-1 1.8-.4.3-1 .4-1.6.4s-1.2 0-1.8-.3v1.8zm8.6-5.5c-1.5 0-2.1.4-2.1 1.7s.6 1.9 2.1 1.9 2.1-.5 2.1-1.8-.6-1.8-2-1.8m1.8 3.6c-.5.3-1.1.4-1.9.4s-1.4-.1-1.9-.4c-.5-.4-.7-1-.7-1.8s.2-1.4.7-1.8 1.1-.5 2-.5c.7 0 1.3.1 1.8.5.6.4.8 1 .8 1.8 0 .7-.2 1.4-.8 1.8m7 .3-1.6-3.5-1.7 3.5h-.4l-1.8-4.3h.6l1.4 3.6 1.6-3.6h.5l1.6 3.6 1.5-3.6h.5l-1.7 4.3zm5.4-3.9c-1.4 0-1.8.6-2 1.4h4c-.1-1-.6-1.4-2-1.4m0 4c-.8 0-1.4-.1-1.8-.5-.5-.4-.7-1-.7-1.7s.3-1.4.8-1.9c.5-.3 1-.4 1.7-.4a3 3 0 0 1 1.7.4c.6.4.7 1.2.7 2h-4.3c0 .9.3 1.6 2 1.6.7 0 1.4 0 2.1-.2v.4c-.7.2-1.5.3-2.2.3m3.9-.1v-4.3h.4v.3c1-.2 1.3-.4 2.1-.4v.5c-.7 0-1.1 0-2 .3v3.6zm5.5-3.9c-1.4 0-1.9.6-2 1.4h3.9c0-1-.5-1.4-2-1.4m0 4c-.8 0-1.3-.1-1.7-.5-.5-.4-.7-1-.7-1.7s.3-1.4.8-1.9c.5-.3 1-.4 1.7-.4a3 3 0 0 1 1.7.4c.6.4.7 1.2.7 2h-4.4c0 .9.3 1.6 2 1.6.8 0 1.5 0 2.2-.2v.4c-.7.2-1.5.3-2.2.3m7.9-3.7-1.7-.3c-1.5 0-2.2.5-2.2 1.8 0 1.2.5 1.7 1.7 1.7l2.2-.3zm0 3.6v-.3c-.7.2-1.6.4-2.3.4-.5 0-1 0-1.5-.4s-.7-1.1-.7-1.8c0-.8.3-1.5 1-1.9.5-.3 1.1-.4 1.7-.4l1.8.3v-2h.5v6zm7.8-3.9c-.7 0-1.5.1-2.2.3v3a5 5 0 0 0 1.7.3c1.5 0 2.2-.5 2.2-1.8s-.6-1.8-1.7-1.8m1.2 3.6c-.4.3-1 .4-1.7.4a6 6 0 0 1-1.9-.3v.2h-.3v-6h.5v2a12 12 0 0 1 2.2-.4c.6 0 1 0 1.5.4.5.5.7 1.1.7 1.9 0 .7-.3 1.4-1 1.8m1.7 2v-.5h.6c.6 0 1-.2 1.3-.9l.2-.3-2.2-4.3h.5l2 3.7 1.7-3.7h.5l-2.4 4.8c-.4.9-.9 1.2-1.7 1.2h-.6m11.7-4.1h-1.5v1.5h1.6c1.2 0 1.6-.2 1.6-.8 0-.7-.6-.7-1.6-.7m-.3-2.5h-1.3v1.6h1.3c1.1 0 1.6-.2 1.6-.8 0-.7-.6-.8-1.6-.8m2.6 4.5c-.6.4-1.4.4-2.7.4h-2.5v-5.8h2.4c1.2 0 1.9 0 2.5.4.4.2.6.6.6 1.1 0 .6-.3 1-1 1.3.8.2 1.3.6 1.3 1.4q0 .9-.6 1.2m5.5-1.4h-1.4c-.9 0-1.2.1-1.2.5s.3.6 1 .6c.5 0 1.2-.1 1.7-.3zm.3 1.8v-.3c-.8.2-1.6.4-2.4.4-.4 0-.9 0-1.2-.3-.4-.2-.5-.6-.5-1 0-.5.2-1 .7-1.2a4 4 0 0 1 1.6-.2h1.5c0-.7-.4-1-1.6-1l-1.6.2v-1h1.9c.7 0 1.5 0 2 .4.4.4.5.8.5 1.5v2.5zm6.5 0v-2.4c0-.7-.4-1-1.1-1a8 8 0 0 0-1.8.2v3.2h-1.1v-4.3h1v.3c.7-.2 1.6-.4 2.2-.4s1.1 0 1.5.4c.3.4.5.8.5 1.4v2.6zm4.5.1c-.5 0-1.1 0-1.6-.4-.5-.5-.6-1.1-.6-1.8s.2-1.5.8-1.9c.6-.3 1.2-.4 2-.4h1.4v1h-1.3c-1.2 0-1.7.3-1.7 1.3 0 .9.4 1.3 1.3 1.3l1.8-.2v.8l-2 .3m5.5-3.6c-1.1 0-1.6.4-1.6 1.3 0 1 .5 1.4 1.6 1.4s1.6-.3 1.6-1.3-.4-1.4-1.6-1.4m2 3.2c-.5.3-1.1.4-2 .4-.8 0-1.5 0-2-.4-.6-.4-.8-1-.8-1.8s.2-1.5.8-1.8c.5-.4 1.2-.5 2-.5.9 0 1.5.1 2 .5.7.3.9 1 .9 1.8 0 .7-.3 1.4-.8 1.8m7.6.4c-.7 0-1.5-.1-2-.6-.7-.6-1-1.5-1-2.4s.3-1.9 1.2-2.5c.7-.4 1.6-.5 2.5-.5h2v1.1h-2c-1.6 0-2.3.6-2.3 1.9 0 1.4.6 2 1.8 2 .8 0 1.7-.2 2.6-.4v1c-.9.2-1.8.4-2.8.4m6.3-3.7c-1 0-1.4.3-1.4 1h2.8c0-.7-.4-1-1.4-1m-.2 3.7c-.7 0-1.3 0-1.8-.5-.5-.4-.7-1-.7-1.7s.3-1.4.8-1.8c.6-.4 1.2-.5 2-.5.5 0 1.2 0 1.8.4.6.5.7 1.3.7 2.1h-4c0 .7.3 1.1 1.5 1.1l2.3-.2v.8c-.8.2-1.7.3-2.6.3m8.1-.1v-2.4c0-.7-.4-1-1.1-1a8 8 0 0 0-1.7.2v3.2h-1.2v-4.3h1v.3c.7-.2 1.6-.4 2.3-.4.5 0 1 0 1.4.4s.5.8.5 1.4v2.6zm4.6.1c-.6 0-1.1-.2-1.4-.6-.2-.3-.3-.7-.3-1.3v-1.5h-.9v-1h.9l.1-1.3h1v1.3h1.7v1h-1.6v2c.2.3.5.4.9.4l.8-.1v.9l-1.2.1m2.3 0v-4.3h1v.3c.8-.2 1.4-.4 2.1-.4h.2v1h-.4c-.6 0-1 0-1.7.2v3.2zm7.6-1.8h-1.5c-.9 0-1.2.1-1.2.5s.2.6 1 .6l1.7-.3zm.3 1.8v-.3c-.8.2-1.6.4-2.4.4-.4 0-1 0-1.3-.3-.3-.2-.5-.6-.5-1 0-.5.3-1 .8-1.2a4 4 0 0 1 1.6-.2h1.5c0-.7-.4-1-1.6-1l-1.6.2v-1h1.8c.8 0 1.5 0 2 .4s.6.8.6 1.5v2.5zm2.4-6.1h1.2v6h-1.2z"/></svg>